<svg width="16" height="16" viewBox="0 0 16 16" fill="none" xmlns="http://www.w3.org/2000/svg">
<path d="M7.28687 15.1667C6.96687 15.1667 6.64689 15.0867 6.35356 14.9267C5.76022 14.5934 5.40686 14 5.40686 13.3267V9.76003C5.40686 9.42003 5.18685 8.92001 4.98018 8.66001L2.44686 6.00002C2.02686 5.58002 1.7002 4.84668 1.7002 4.30668V2.76003C1.7002 1.6867 2.51354 0.84668 3.54688 0.84668H12.4402C13.4602 0.84668 14.2869 1.67336 14.2869 2.69336V4.17336C14.2869 4.87336 13.8669 5.68001 13.4669 6.07334C13.2735 6.26668 12.9535 6.26668 12.7602 6.07334C12.5669 5.88001 12.5669 5.56001 12.7602 5.36668C13.0069 5.12001 13.2869 4.56669 13.2869 4.17336V2.69336C13.2869 2.22669 12.9069 1.84668 12.4402 1.84668H3.54688C3.07354 1.84668 2.7002 2.2467 2.7002 2.76003V4.30668C2.7002 4.55335 2.9002 5.04003 3.1602 5.30003L5.72689 8.00002C6.06689 8.42002 6.40019 9.1267 6.40019 9.76003V13.3267C6.40019 13.7667 6.7002 13.98 6.83354 14.0533C7.1202 14.2133 7.46022 14.2067 7.72689 14.0467L8.6602 13.4467C8.85353 13.3334 9.0402 12.9667 9.0402 12.72C9.0402 12.4467 9.26687 12.22 9.5402 12.22C9.81354 12.22 10.0402 12.4467 10.0402 12.72C10.0402 13.32 9.66686 14.0067 9.19352 14.2934L8.26689 14.8934C7.96689 15.0734 7.62687 15.1667 7.28687 15.1667Z" fill="currentColor"/>
<path d="M10.7134 11.5137C9.26009 11.5137 8.08008 10.3337 8.08008 8.88041C8.08008 7.42708 9.26009 6.24707 10.7134 6.24707C12.1668 6.24707 13.3468 7.42708 13.3468 8.88041C13.3468 10.3337 12.1668 11.5137 10.7134 11.5137ZM10.7134 7.24707C9.81342 7.24707 9.08008 7.98041 9.08008 8.88041C9.08008 9.78041 9.81342 10.5137 10.7134 10.5137C11.6134 10.5137 12.3468 9.78041 12.3468 8.88041C12.3468 7.98041 11.6134 7.24707 10.7134 7.24707Z" fill="currentColor"/>
<path d="M13.247 11.913C13.1203 11.913 12.9937 11.8664 12.8937 11.7664L12.227 11.0997C12.0337 10.9064 12.0337 10.5864 12.227 10.393C12.4204 10.1997 12.7404 10.1997 12.9337 10.393L13.6004 11.0597C13.7937 11.253 13.7937 11.573 13.6004 11.7664C13.507 11.8597 13.3737 11.913 13.247 11.913Z" fill="currentColor"/>
</svg>
