<svg width="16" height="16" viewBox="0 0 16 16" fill="none" xmlns="http://www.w3.org/2000/svg">
<path fill-rule="evenodd" clip-rule="evenodd" d="M13.5247 3.49499C13.7841 3.49499 14 3.71032 14 3.98431V4.23765C14 4.50498 13.7841 4.72697 13.5247 4.72697H2.4759C2.21591 4.72697 2 4.50498 2 4.23765V3.98431C2 3.71032 2.21591 3.49499 2.4759 3.49499H4.41971C4.81457 3.49499 5.1582 3.21432 5.24703 2.81833L5.34882 2.36366C5.50702 1.74434 6.02766 1.33301 6.62351 1.33301H9.37649C9.96585 1.33301 10.4923 1.74434 10.6447 2.331L10.7536 2.81766C10.8418 3.21432 11.1854 3.49499 11.5809 3.49499H13.5247ZM12.5372 12.7557C12.7402 10.8644 13.0955 6.37109 13.0955 6.32576C13.1084 6.18843 13.0637 6.05843 12.9749 5.95376C12.8796 5.85576 12.759 5.79776 12.626 5.79776H3.37901C3.24545 5.79776 3.11837 5.85576 3.03019 5.95376C2.94072 6.05843 2.89663 6.18843 2.90311 6.32576C2.9043 6.33409 2.91705 6.49236 2.93837 6.75698C3.03306 7.93248 3.29678 11.2065 3.46719 12.7557C3.58779 13.897 4.33665 14.6143 5.42137 14.6403C6.25842 14.6597 7.12075 14.6663 8.00253 14.6663C8.83309 14.6663 9.67662 14.6597 10.5396 14.6403C11.6619 14.621 12.4101 13.9163 12.5372 12.7557Z" fill="currentColor"/>
</svg>
